<svg width="135" height="32" viewBox="0 0 135 32" fill="none" xmlns="http://www.w3.org/2000/svg">
<g filter="url(#filter0_d_91_964)">
<rect y="6.10352e-05" width="135" height="30" rx="5" fill="#8B4513" shape-rendering="crispEdges"/>
<rect x="0.5" y="0.500061" width="134" height="29" rx="4.5" stroke="#222222" shape-rendering="crispEdges"/>
<g clip-path="url(#clip0_91_964)">
<path d="M27.1667 10.1666H28.9907C29.1338 10.6931 29.4461 11.1579 29.8796 11.4892C30.313 11.8206 30.8434 12.0001 31.389 12.0001C31.9346 12.0001 32.465 11.8206 32.8984 11.4892C33.3319 11.1579 33.6442 10.6931 33.7873 10.1666H41.8333C42.0101 10.1666 42.1797 10.0964 42.3047 9.97133C42.4298 9.84631 42.5 9.67674 42.5 9.49993C42.5 9.32312 42.4298 9.15355 42.3047 9.02852C42.1797 8.9035 42.0101 8.83326 41.8333 8.83326H33.7873C33.6442 8.30677 33.3319 7.842 32.8984 7.51064C32.465 7.17928 31.9346 6.99976 31.389 6.99976C30.8434 6.99976 30.313 7.17928 29.8796 7.51064C29.4461 7.842 29.1338 8.30677 28.9907 8.83326H27.1667C26.9899 8.83326 26.8203 8.9035 26.6953 9.02852C26.5702 9.15355 26.5 9.32312 26.5 9.49993C26.5 9.67674 26.5702 9.84631 26.6953 9.97133C26.8203 10.0964 26.9899 10.1666 27.1667 10.1666ZM31.3887 8.33326C31.6194 8.33326 31.845 8.40169 32.0368 8.52988C32.2287 8.65808 32.3782 8.84028 32.4665 9.05346C32.5548 9.26664 32.5779 9.50122 32.5329 9.72753C32.4879 9.95385 32.3768 10.1617 32.2136 10.3249C32.0505 10.488 31.8426 10.5992 31.6163 10.6442C31.39 10.6892 31.1554 10.6661 30.9422 10.5778C30.729 10.4895 30.5468 10.34 30.4186 10.1481C30.2904 9.95624 30.222 9.73067 30.222 9.49993C30.2224 9.19062 30.3454 8.89408 30.5641 8.67536C30.7828 8.45664 31.0794 8.33361 31.3887 8.33326Z" fill="white"/>
<path d="M41.8333 14.3334H40.0093C39.8665 13.8068 39.5542 13.3419 39.1208 13.0104C38.6874 12.6789 38.157 12.4993 37.6113 12.4993C37.0657 12.4993 36.5352 12.6789 36.1018 13.0104C35.6684 13.3419 35.3562 13.8068 35.2133 14.3334H27.1667C26.9899 14.3334 26.8203 14.4037 26.6953 14.5287C26.5702 14.6537 26.5 14.8233 26.5 15.0001C26.5 15.1769 26.5702 15.3465 26.6953 15.4715C26.8203 15.5965 26.9899 15.6668 27.1667 15.6668H35.2133C35.3562 16.1934 35.6684 16.6583 36.1018 16.9898C36.5352 17.3213 37.0657 17.5009 37.6113 17.5009C38.157 17.5009 38.6874 17.3213 39.1208 16.9898C39.5542 16.6583 39.8665 16.1934 40.0093 15.6668H41.8333C42.0101 15.6668 42.1797 15.5965 42.3047 15.4715C42.4298 15.3465 42.5 15.1769 42.5 15.0001C42.5 14.8233 42.4298 14.6537 42.3047 14.5287C42.1797 14.4037 42.0101 14.3334 41.8333 14.3334ZM37.6113 16.1668C37.3806 16.1668 37.155 16.0983 36.9632 15.9701C36.7713 15.8419 36.6218 15.6597 36.5335 15.4466C36.4452 15.2334 36.4221 14.9988 36.4671 14.7725C36.5121 14.5462 36.6232 14.3383 36.7864 14.1751C36.9495 14.012 37.1574 13.9009 37.3837 13.8558C37.61 13.8108 37.8446 13.8339 38.0578 13.9222C38.271 14.0105 38.4532 14.1601 38.5814 14.3519C38.7096 14.5438 38.778 14.7693 38.778 15.0001C38.7776 15.3094 38.6546 15.6059 38.4359 15.8247C38.2172 16.0434 37.9206 16.1664 37.6113 16.1668Z" fill="white"/>
<path d="M41.8333 19.8334H33.7873C33.6442 19.3069 33.3319 18.8421 32.8984 18.5108C32.465 18.1794 31.9346 17.9999 31.389 17.9999C30.8434 17.9999 30.313 18.1794 29.8796 18.5108C29.4461 18.8421 29.1338 19.3069 28.9907 19.8334H27.1667C26.9899 19.8334 26.8203 19.9036 26.6953 20.0286C26.5702 20.1537 26.5 20.3232 26.5 20.5001C26.5 20.6769 26.5702 20.8464 26.6953 20.9715C26.8203 21.0965 26.9899 21.1667 27.1667 21.1667H28.9907C29.1338 21.6932 29.4461 22.158 29.8796 22.4893C30.313 22.8207 30.8434 23.0002 31.389 23.0002C31.9346 23.0002 32.465 22.8207 32.8984 22.4893C33.3319 22.158 33.6442 21.6932 33.7873 21.1667H41.8333C42.0101 21.1667 42.1797 21.0965 42.3047 20.9715C42.4298 20.8464 42.5 20.6769 42.5 20.5001C42.5 20.3232 42.4298 20.1537 42.3047 20.0286C42.1797 19.9036 42.0101 19.8334 41.8333 19.8334ZM31.3887 21.6667C31.1579 21.6667 30.9324 21.5983 30.7405 21.4701C30.5486 21.3419 30.3991 21.1597 30.3108 20.9465C30.2225 20.7333 30.1994 20.4988 30.2444 20.2724C30.2894 20.0461 30.4005 19.8383 30.5637 19.6751C30.7269 19.5119 30.9348 19.4008 31.1611 19.3558C31.3874 19.3108 31.622 19.3339 31.8351 19.4222C32.0483 19.5105 32.2305 19.66 32.3587 19.8519C32.4869 20.0437 32.5553 20.2693 32.5553 20.5001C32.5548 20.8093 32.4317 21.1057 32.213 21.3244C31.9944 21.5431 31.6979 21.6662 31.3887 21.6667Z" fill="white"/>
</g>
<path d="M60.956 9.53606V10.8001H55.452V14.8081H60.156V16.0721H55.452V21.0001H53.892V9.53606H60.956ZM64.3145 12.8961V21.0001H62.8905V12.8961H64.3145ZM64.6345 10.3521C64.6345 10.4907 64.6052 10.6214 64.5465 10.7441C64.4932 10.8614 64.4185 10.9681 64.3225 11.0641C64.2318 11.1547 64.1252 11.2267 64.0025 11.2801C63.8798 11.3334 63.7492 11.3601 63.6105 11.3601C63.4718 11.3601 63.3412 11.3334 63.2185 11.2801C63.1012 11.2267 62.9945 11.1547 62.8985 11.0641C62.8078 10.9681 62.7358 10.8614 62.6825 10.7441C62.6292 10.6214 62.6025 10.4907 62.6025 10.3521C62.6025 10.2134 62.6292 10.0827 62.6825 9.96006C62.7358 9.83206 62.8078 9.72273 62.8985 9.63206C62.9945 9.53606 63.1012 9.46139 63.2185 9.40806C63.3412 9.35473 63.4718 9.32806 63.6105 9.32806C63.7492 9.32806 63.8798 9.35473 64.0025 9.40806C64.1252 9.46139 64.2318 9.53606 64.3225 9.63206C64.4185 9.72273 64.4932 9.83206 64.5465 9.96006C64.6052 10.0827 64.6345 10.2134 64.6345 10.3521ZM68.4083 9.21606V21.0001H66.9843V9.21606H68.4083ZM73.374 21.1281C72.734 21.1281 72.2407 20.9494 71.894 20.5921C71.5527 20.2347 71.382 19.7201 71.382 19.0481V14.0881H70.406C70.3207 14.0881 70.2487 14.0641 70.19 14.0161C70.1313 13.9627 70.102 13.8827 70.102 13.7761V13.2081L71.43 13.0401L71.758 10.5361C71.7687 10.4561 71.8033 10.3921 71.862 10.3441C71.9207 10.2907 71.9953 10.2641 72.086 10.2641H72.806V13.0561H75.126V14.0881H72.806V18.9521C72.806 19.2934 72.8887 19.5467 73.054 19.7121C73.2193 19.8774 73.4327 19.9601 73.694 19.9601C73.8433 19.9601 73.9713 19.9414 74.078 19.9041C74.19 19.8614 74.286 19.8161 74.366 19.7681C74.446 19.7201 74.5127 19.6774 74.566 19.6401C74.6247 19.5974 74.6753 19.5761 74.718 19.5761C74.7927 19.5761 74.8593 19.6214 74.918 19.7121L75.334 20.3921C75.0887 20.6214 74.7927 20.8027 74.446 20.9361C74.0993 21.0641 73.742 21.1281 73.374 21.1281ZM76.8868 21.0001V12.8961H77.7028C77.8574 12.8961 77.9641 12.9254 78.0228 12.9841C78.0814 13.0427 78.1214 13.1441 78.1428 13.2881L78.2388 14.5521C78.5161 13.9867 78.8574 13.5467 79.2628 13.2321C79.6734 12.9121 80.1534 12.7521 80.7028 12.7521C80.9268 12.7521 81.1294 12.7787 81.3108 12.8321C81.4921 12.8801 81.6601 12.9494 81.8148 13.0401L81.6308 14.1041C81.5934 14.2374 81.5108 14.3041 81.3828 14.3041C81.3081 14.3041 81.1934 14.2801 81.0388 14.2321C80.8841 14.1787 80.6681 14.1521 80.3908 14.1521C79.8948 14.1521 79.4788 14.2961 79.1428 14.5841C78.8121 14.8721 78.5348 15.2907 78.3108 15.8401V21.0001H76.8868ZM88.995 21.0001H88.363C88.2243 21.0001 88.1123 20.9787 88.027 20.9361C87.9417 20.8934 87.8857 20.8027 87.859 20.6641L87.699 19.9121C87.4857 20.1041 87.2777 20.2774 87.075 20.4321C86.8723 20.5814 86.659 20.7094 86.435 20.8161C86.211 20.9174 85.971 20.9947 85.715 21.0481C85.4643 21.1014 85.1843 21.1281 84.875 21.1281C84.5603 21.1281 84.2643 21.0854 83.987 21.0001C83.715 20.9094 83.4777 20.7761 83.275 20.6001C83.0723 20.4241 82.9097 20.2027 82.787 19.9361C82.6697 19.6641 82.611 19.3441 82.611 18.9761C82.611 18.6561 82.699 18.3494 82.875 18.0561C83.051 17.7574 83.3337 17.4934 83.723 17.2641C84.1177 17.0347 84.6323 16.8481 85.267 16.7041C85.9017 16.5547 86.6777 16.4694 87.595 16.4481V15.8161C87.595 15.1867 87.459 14.7121 87.187 14.3921C86.9203 14.0667 86.523 13.9041 85.995 13.9041C85.6483 13.9041 85.355 13.9494 85.115 14.0401C84.8803 14.1254 84.675 14.2241 84.499 14.3361C84.3283 14.4427 84.179 14.5414 84.051 14.6321C83.9283 14.7174 83.8057 14.7601 83.683 14.7601C83.587 14.7601 83.5017 14.7361 83.427 14.6881C83.3577 14.6347 83.3017 14.5707 83.259 14.4961L83.003 14.0401C83.451 13.6081 83.9337 13.2854 84.451 13.0721C84.9683 12.8587 85.5417 12.7521 86.171 12.7521C86.6243 12.7521 87.027 12.8267 87.379 12.9761C87.731 13.1254 88.027 13.3334 88.267 13.6001C88.507 13.8667 88.6883 14.1894 88.811 14.5681C88.9337 14.9467 88.995 15.3627 88.995 15.8161V21.0001ZM85.299 20.1281C85.5497 20.1281 85.779 20.1041 85.987 20.0561C86.195 20.0027 86.3897 19.9307 86.571 19.8401C86.7577 19.7441 86.9337 19.6294 87.099 19.4961C87.2697 19.3627 87.435 19.2107 87.595 19.0401V17.3521C86.939 17.3734 86.3817 17.4267 85.923 17.5121C85.4643 17.5921 85.091 17.6987 84.803 17.8321C84.515 17.9654 84.3043 18.1227 84.171 18.3041C84.043 18.4854 83.979 18.6881 83.979 18.9121C83.979 19.1254 84.0137 19.3094 84.083 19.4641C84.1523 19.6187 84.2457 19.7467 84.363 19.8481C84.4803 19.9441 84.619 20.0161 84.779 20.0641C84.939 20.1067 85.1123 20.1281 85.299 20.1281ZM91.1524 21.0001V12.8961H91.9684C92.123 12.8961 92.2297 12.9254 92.2884 12.9841C92.347 13.0427 92.387 13.1441 92.4084 13.2881L92.5044 14.5521C92.7817 13.9867 93.123 13.5467 93.5284 13.2321C93.939 12.9121 94.419 12.7521 94.9684 12.7521C95.1924 12.7521 95.395 12.7787 95.5764 12.8321C95.7577 12.8801 95.9257 12.9494 96.0804 13.0401L95.8964 14.1041C95.859 14.2374 95.7764 14.3041 95.6484 14.3041C95.5737 14.3041 95.459 14.2801 95.3044 14.2321C95.1497 14.1787 94.9337 14.1521 94.6564 14.1521C94.1604 14.1521 93.7444 14.2961 93.4084 14.5841C93.0777 14.8721 92.8004 15.2907 92.5764 15.8401V21.0001H91.1524Z" fill="white"/>
</g>
<defs>
<filter id="filter0_d_91_964" x="0" y="6.10352e-05" width="135" height="32" filterUnits="userSpaceOnUse" color-interpolation-filters="sRGB">
<feFlood flood-opacity="0" result="BackgroundImageFix"/>
<feColorMatrix in="SourceAlpha" type="matrix" values="0 0 0 0 0 0 0 0 0 0 0 0 0 0 0 0 0 0 127 0" result="hardAlpha"/>
<feOffset dy="2"/>
<feComposite in2="hardAlpha" operator="out"/>
<feColorMatrix type="matrix" values="0 0 0 0 0.133333 0 0 0 0 0.133333 0 0 0 0 0.133333 0 0 0 1 0"/>
<feBlend mode="normal" in2="BackgroundImageFix" result="effect1_dropShadow_91_964"/>
<feBlend mode="normal" in="SourceGraphic" in2="effect1_dropShadow_91_964" result="shape"/>
</filter>
<clipPath id="clip0_91_964">
<rect width="16" height="16" fill="white" transform="translate(26.5 7.00006)"/>
</clipPath>
</defs>
</svg>
