<svg width="38" height="38" viewBox="0 0 38 38" fill="none" xmlns="http://www.w3.org/2000/svg">
<g clip-path="url(#clip0_110_18)">
<path d="M19.0001 12.6667C17.3204 12.6667 15.7095 13.3339 14.5217 14.5217C13.334 15.7094 12.6667 17.3203 12.6667 19C12.6667 20.6797 13.334 22.2906 14.5217 23.4784C15.7095 24.6661 17.3204 25.3334 19.0001 25.3334C20.6798 25.3334 22.2907 24.6661 23.4784 23.4784C24.6662 22.2906 25.3334 20.6797 25.3334 19C25.3334 17.3203 24.6662 15.7094 23.4784 14.5217C22.2907 13.3339 20.6798 12.6667 19.0001 12.6667Z" fill="black" fill-opacity="0.7"/>
<path fill-rule="evenodd" clip-rule="evenodd" d="M11.4 0C8.37653 0 5.4769 1.20107 3.33898 3.33898C1.20107 5.4769 0 8.37653 0 11.4L0 26.6C0 29.6235 1.20107 32.5231 3.33898 34.661C5.4769 36.7989 8.37653 38 11.4 38H26.6C29.6235 38 32.5231 36.7989 34.661 34.661C36.7989 32.5231 38 29.6235 38 26.6V11.4C38 8.37653 36.7989 5.4769 34.661 3.33898C32.5231 1.20107 29.6235 0 26.6 0L11.4 0ZM10.1333 19C10.1333 16.6484 11.0675 14.3931 12.7303 12.7303C14.3931 11.0675 16.6484 10.1333 19 10.1333C21.3516 10.1333 23.6069 11.0675 25.2697 12.7303C26.9325 14.3931 27.8667 16.6484 27.8667 19C27.8667 21.3516 26.9325 23.6069 25.2697 25.2697C23.6069 26.9325 21.3516 27.8667 19 27.8667C16.6484 27.8667 14.3931 26.9325 12.7303 25.2697C11.0675 23.6069 10.1333 21.3516 10.1333 19ZM27.8667 10.1333H30.4V7.6H27.8667V10.1333Z" fill="black" fill-opacity="0.7"/>
</g>
<defs>
<clipPath id="clip0_110_18">
<rect width="38" height="38" fill="white"/>
</clipPath>
</defs>
</svg>
