<?xml version="1.0" encoding="UTF-8" standalone="no"?>
<!-- Created with Inkscape (http://www.inkscape.org/) -->

<svg
   width="157.61249mm"
   height="159.15208mm"
   viewBox="0 0 157.61249 159.15208"
   version="1.1"
   id="svg5"
   xml:space="preserve"
   inkscape:version="1.2.1 (9c6d41e410, 2022-07-14)"
   sodipodi:docname="Logo_Marron.svg"
   xmlns:inkscape="http://www.inkscape.org/namespaces/inkscape"
   xmlns:sodipodi="http://sodipodi.sourceforge.net/DTD/sodipodi-0.dtd"
   xmlns="http://www.w3.org/2000/svg"
   xmlns:svg="http://www.w3.org/2000/svg"><sodipodi:namedview
     id="namedview7"
     pagecolor="#ffffff"
     bordercolor="#000000"
     borderopacity="0.25"
     inkscape:showpageshadow="2"
     inkscape:pageopacity="0.0"
     inkscape:pagecheckerboard="0"
     inkscape:deskcolor="#d1d1d1"
     inkscape:document-units="mm"
     showgrid="false"
     inkscape:lockguides="true"
     inkscape:zoom="1"
     inkscape:cx="127.5"
     inkscape:cy="284"
     inkscape:window-width="1862"
     inkscape:window-height="1001"
     inkscape:window-x="642"
     inkscape:window-y="0"
     inkscape:window-maximized="0"
     inkscape:current-layer="layer1"
     showguides="true"><sodipodi:guide
       position="62.970832,169.20625"
       orientation="0,-1"
       id="guide2793"
       inkscape:locked="true" /><sodipodi:guide
       position="167.74583,145.12917"
       orientation="0,-1"
       id="guide2845"
       inkscape:locked="true" /><sodipodi:guide
       position="149.225,157.06849"
       orientation="0,-1"
       id="guide2899"
       inkscape:locked="true" /></sodipodi:namedview><defs
     id="defs2"><rect
       x="194"
       y="654"
       width="775"
       height="391"
       id="rect2766" /><rect
       x="221"
       y="668"
       width="302"
       height="139"
       id="rect2760" /><rect
       x="182.39268"
       y="677.26697"
       width="524.37897"
       height="199.82729"
       id="rect578" /></defs><g
     inkscape:label="Capa 1"
     inkscape:groupmode="layer"
     id="layer1"
     transform="translate(-21.695833,-16.139583)"><path
       d="m 113.02951,120.45291 c 4.74903,-0.88149 11.70588,-3.13216 11.93705,-3.86184 0.0461,-0.14552 -2.14855,-1.15158 -4.87699,-2.2357 -16.71375,-6.641 -27.552061,-14.476119 -28.535933,-20.628899 -0.095,-0.59411 -0.27508,-1.0802 -0.40017,-1.0802 -0.19742,0 -12.72756,3.75637 -22.70252,6.80592 -1.80737,0.552549 -3.32957,1.134949 -3.38266,1.294209 -0.13715,0.41146 2.0302,3.218 4.50011,5.82729 7.4464,7.86661 18.0882,13.12994 29.038192,14.36198 3.543921,0.39875 11.022361,0.14843 14.422921,-0.48277 z m 24.9275,-12.65924 c 7.37391,-7.38381 11.64213,-15.841779 13.31849,-26.392189 0.5544,-3.48916 0.42062,-11.32782 -0.25693,-15.05437 -3.08693,-16.97837 -15.34398,-31.063929 -32.01424,-36.79019 -16.46398,-5.65539 -35.139583,-1.17919 -47.961723,11.495571 -6.81455,6.736199 -11.045,14.474569 -13.09653,23.956219 -0.70034,3.23679 -0.742,3.79737 -0.74641,10.04273 -0.004,6.14539 0.0442,6.8398 0.68396,9.78959 0.66588,3.07011 1.88108,6.68111 3.26749,9.70943 l 0.66884,1.46093 14.74816,-4.42103 c 8.11149,-2.43156 16.474572,-4.92286 18.584622,-5.5362 8.139881,-2.36609 12.709031,-3.82205 12.510201,-3.98638 -0.11389,-0.0941 -3.39638,-1.53271 -7.29443,-3.19686 l -7.087341,-3.02573 -0.94598,-1.71979 c -1.923832,-3.49753 -4.123572,-6.87917 -4.474872,-6.87917 -0.19903,0 -0.49986,0.2679 -0.66851,0.59532 -0.16864,0.32742 -1.051,1.78593 -1.96079,3.24114 -0.90979,1.45521 -2.68457,4.40201 -3.94396,6.54844 -1.25938,2.14643 -2.3758,3.9026 -2.48094,3.9026 -0.10514,0 -0.91863,-1.22039 -1.80776,-2.71198 -0.88913,-1.49158 -1.80282,-2.74879 -2.03042,-2.79378 -0.45858,-0.0906 -1.62199,1.61944 -5.87666,8.63801 -1.45521,2.40054 -2.78638,4.41139 -2.95817,4.46856 -0.4367,0.14533 -2.05903,-5.0465 -2.49908,-7.99768 -0.51187,-3.43276 -0.43325,-10.5141 0.15127,-13.62604 3.24244,-17.26252 16.67635,-30.350989 34.232632,-33.352389 12.438551,-2.12647 25.821311,2.22456 34.977931,11.372109 6.37505,6.36873 9.90143,12.85354 11.81222,21.72203 0.67363,3.12651 0.66932,11.27581 -0.008,14.66844 -0.62928,3.15311 -1.9869,7.34163 -2.34133,7.22348 -0.15595,-0.052 -1.29493,-1.7559 -2.53108,-3.78649 -1.23615,-2.03058 -3.04353,-5.0016 -4.01641,-6.60225 -0.97288,-1.60065 -1.94665,-2.94451 -2.16393,-2.98636 -0.24987,-0.0481 -1.06374,0.94855 -2.21446,2.71184 -1.00067,1.53336 -1.88632,2.78753 -1.96811,2.78706 -0.0818,-5.3e-4 -0.73654,-1.04227 -1.45499,-2.31511 -0.71846,-1.27283 -2.46759,-4.18177 -3.88696,-6.46431 -1.41937,-2.28253 -2.76936,-4.51495 -2.99999,-4.96093 -0.23062,-0.44598 -0.52592,-0.81087 -0.65622,-0.81087 -0.1303,0 -1.10386,1.42875 -2.16346,3.175 -1.05959,1.74625 -2.00682,3.175 -2.10494,3.175 -0.0981,0 -0.86414,-1.16086 -1.70226,-2.57969 -4.12008,-6.97478 -9.46394,-15.86663 -9.81888,-16.33802 -0.39427,-0.52362 -0.40412,-0.52224 -0.94052,0.13229 -0.29815,0.3638 -1.20132,1.79255 -2.00705,3.175 -0.80573,1.38245 -2.122011,3.58511 -2.925081,4.89479 -1.83339,2.98999 -4.83618,8.1386 -4.89682,8.39614 -0.0251,0.10673 1.50211,0.83199 3.39388,1.61169 3.158661,1.30184 15.156741,6.39299 21.828131,9.26232 1.52796,0.65718 2.77812,1.34619 2.77812,1.53114 0,0.21159 -2.30558,1.00105 -6.21771,2.12903 -10.86231,3.13194 -13.74137,4.26599 -15.04829,5.92746 -2.244301,2.85316 2.36967,6.38476 16.23892,12.429499 4.60185,2.00566 17.14967,6.9654 17.66681,6.98312 0.2579,0.009 1.74711,-1.26386 3.30936,-2.82821 z"
       style="display:inline;fill:#8b4513;stroke-width:0.264583;fill-opacity:1"
       id="path436"
       sodipodi:nodetypes="sscsssssssscssscsccscsssscssssssscssssssscssssscssssssssssscssssssccc"
       inkscape:label="montaña" /><path
       d="m 52.292701,151.81017 c 0.86685,-0.51207 0.86253,-0.50385 3.38043,-6.42779 1.02057,-2.40109 2.87993,-6.68734 4.13193,-9.525 1.86406,-4.22488 2.24798,-5.31739 2.11962,-6.03189 -0.30823,-1.71578 -2.78997,-2.4256 -4.15819,-1.18931 -0.59861,0.54089 -1.46573,2.17998 -2.7704,5.23683 -2.78215,6.51854 -4.31193,9.47209 -4.31193,8.32499 0,-0.36747 -5.19484,-12.10655 -5.69579,-12.8711 -0.21704,-0.33124 -0.77001,-0.79638 -1.22883,-1.03364 -1.51228,-0.78203 -3.65872,0.33325 -3.65872,1.90104 0,0.31305 0.46357,1.62601 1.03016,2.9177 0.56659,1.29168 2.36175,5.3846 3.98925,9.09538 4.30816,9.82285 4.1525,9.50735 4.8234,9.77656 0.91674,0.36787 1.50592,0.32428 2.34907,-0.17377 z m 50.249789,-0.098 c 2.84112,-1.00703 4.55084,-3.36601 4.55084,-6.27902 0,-2.28044 -0.98178,-3.93696 -3.22065,-5.43409 -0.42721,-0.28567 -0.51323,-0.43745 -0.24794,-0.43745 0.22344,0 0.71861,-0.32742 1.10038,-0.7276 1.96154,-2.05615 1.65708,-6.02 -0.62896,-8.18853 -1.87304,-1.77676 -2.99104,-2.05682 -8.225989,-2.06065 -6.55601,-0.005 -5.87695,-1.30544 -5.97069,11.43616 -0.079,10.74543 -0.0221,11.3717 1.08632,11.94618 0.78094,0.40476 10.287109,0.195 11.556689,-0.255 z m -7.496519,-4.65403 c -0.097,-0.097 -0.1764,-1.10905 -0.1764,-2.24896 v -2.07257 l 2.57969,10e-4 c 3.005669,0.001 4.126529,0.46132 4.424139,1.81633 0.39972,1.81986 -1.0251,2.68053 -4.437689,2.68053 -1.21734,0 -2.29273,-0.0794 -2.38974,-0.17639 z m -0.1764,-11.33299 v -2.24896 l 2.05053,0.0264 c 2.79313,0.0359 3.287359,0.20815 3.844189,1.33954 0.98334,1.99798 -0.37983,3.132 -3.764909,3.132 h -2.12981 z m 22.985019,15.86279 c 0.44034,-0.37052 1.1078,-1.32302 1.48326,-2.11667 l 0.68264,-1.44299 h 5.16619 5.16618 l 0.62502,1.41327 c 0.85193,1.92638 1.95451,2.82007 3.47923,2.82007 1.53454,0 2.62795,-0.95746 2.3569,-2.06383 -0.39852,-1.62662 -9.45237,-20.84971 -10.08761,-21.41794 -0.90969,-0.81374 -2.32559,-0.79813 -3.09602,0.0341 -0.9542,1.0308 -10.05745,20.483 -10.03045,21.43349 0.0533,1.87564 2.64735,2.69292 4.25466,1.34047 z m 4.79624,-8.55382 c 0,-0.12742 0.31199,-0.93109 0.69332,-1.78594 0.38133,-0.85485 0.92958,-2.09006 1.21835,-2.7449 l 0.52502,-1.19063 1.29519,2.74957 c 0.71236,1.51226 1.2952,2.85172 1.2952,2.97656 0,0.12485 -1.1311,0.227 -2.51354,0.227 -1.38245,0 -2.51354,-0.10425 -2.51354,-0.23166 z m 34.71353,8.92974 c 1.91946,-0.40763 3.55759,-1.21394 4.61543,-2.27177 1.09027,-1.09028 1.1588,-2.09477 0.21909,-3.21156 -1.00201,-1.19082 -1.85119,-1.26039 -3.84888,-0.31533 -3.92736,1.85794 -7.85851,0.51745 -9.66676,-3.29629 -1.14267,-2.40999 -0.74819,-5.14593 1.03388,-7.17046 1.38659,-1.57526 2.81783,-2.27205 4.98666,-2.42774 1.57077,-0.11276 1.95696,-0.0346 3.62329,0.73348 2.09428,0.9653 2.73751,0.93817 3.83752,-0.16184 2.46419,-2.46419 -1.91859,-5.92239 -7.50578,-5.92239 -4.61888,0 -8.67982,2.46749 -11.00003,6.9387 -0.99884,1.92483 -0.99884,3.58257 -0.99884,5.23769 0,1.87095 0.26251,3.37579 1.07639,5.02708 2.53936,5.15228 8.19941,7.99327 13.62803,6.84043 z"
       style="display:inline;fill:#8b4513;stroke-width:0.264583;fill-opacity:1"
       id="path469"
       inkscape:label="Letras"
       sodipodi:nodetypes="ssssssssssssssssssssccsscsccsscccccsscccscccsssscsccssscsssssssssssssssscs" /><path
       d="m 74.796298,68.063058 c 0.44271,-0.44271 0.39627,-1.40442 -0.0872,-1.80567 -0.66893,-0.55516 -1.71196,0.0767 -1.71196,1.03712 0,1.01109 1.09071,1.47701 1.79917,0.76855 z m 59.795832,-1.05833 c 0.76475,-0.76474 0.17774,-2.06375 -0.93259,-2.06375 -0.76742,0 -1.27059,1.09718 -0.8573,1.86941 0.30618,0.57212 1.3038,0.68044 1.78989,0.19434 z m -42.09352,-8.01835 c 1.85639,-0.55128 3.3885,-2.11988 3.94697,-4.04096 1.76864,-6.08389 -5.064342,-10.55077 -9.791062,-6.40065 -3.61588,3.17479 -2.1886,9.1848 2.5011,10.53166 1.29888,0.37303 1.83199,0.35868 3.342992,-0.0901 z m 32.90396,-0.95807 c 0.44183,-0.82557 -0.0736,-1.81862 -0.94395,-1.81862 -0.45134,0 -0.76699,0.20672 -0.95893,0.62799 -0.39025,0.8565 0.10023,1.75326 0.95893,1.75326 0.3848,0 0.76371,-0.22585 0.94395,-0.56263 z m -10.48785,-5.14481 c 0.75458,-0.75457 0.31206,-1.70089 -0.79537,-1.70089 -0.88016,0 -1.31301,0.66654 -0.95009,1.46304 0.34025,0.74677 1.12905,0.85426 1.74546,0.23785 z m -10.36984,-6.89135 c 0.279,-0.61233 0.2433,-0.75104 -0.30826,-1.19766 -0.54869,-0.44431 -0.6909,-0.46065 -1.18111,-0.13574 -1.07669,0.71362 -0.72749,2.02594 0.5391,2.02594 0.42789,0 0.73756,-0.22568 0.95027,-0.69254 z"
       style="fill:#8b4513;stroke-width:0.264583;fill-opacity:1"
       id="path492" /><path
       d="m 76.234671,152.5999 0.83735,-0.433 -1.30272,-1.13015 -1.30273,-1.13014 -1.25629,0.96784 c -1.50085,1.15626 -1.53045,1.28091 -0.41893,1.76401 1.15352,0.50137 2.42679,0.48711 3.44332,-0.0386 z m -3.80607,-2.27821 c 1.05751,-0.96163 1.45138,-2.05121 0.7415,-2.05121 -0.95764,0 -3.09073,0.84628 -3.09073,1.22621 0,0.50859 0.84635,1.97931 1.08486,1.88518 0.0957,-0.0378 0.66468,-0.51486 1.26437,-1.06018 z m 5.97835,0.34318 c 0.57233,-1.10677 0.5152,-1.31646 -0.47088,-1.72847 -1.95796,-0.81809 -2.30045,-0.80619 -2.30045,0.0799 0,0.60548 0.24277,1.00328 0.98632,1.61618 1.21334,1.00014 1.28391,1.00141 1.78501,0.0324 z m -4.888,-4.16813 c 0,-0.57577 -0.0968,-0.6075 -1.85208,-0.6075 h -1.85209 v 1.01422 c 0,0.55783 0.0664,1.08062 0.14749,1.16173 0.0811,0.0811 0.91455,-0.10192 1.85208,-0.40673 1.44058,-0.46836 1.7046,-0.6483 1.7046,-1.16172 z m 5.29167,0.60661 v -1.16712 l -1.58798,-0.0897 c -1.56247,-0.0882 -1.58798,-0.0784 -1.5875,0.60851 5.3e-4,0.59543 0.14447,0.72517 0.97915,0.88176 0.53827,0.10098 1.21961,0.35236 1.51408,0.55861 0.71281,0.49928 0.68225,0.53477 0.68225,-0.79212 z m -0.43404,-2.73548 c 0.0719,-0.25466 0.21311,-0.9988 0.31371,-1.65364 0.10059,-0.65485 0.34741,-1.51213 0.54849,-1.90509 0.51336,-1.00326 0.51143,-1.00532 -0.93893,-1.00532 -1.15139,0 -1.31444,0.0699 -1.38906,0.59531 -0.0793,0.55866 -0.22715,0.60002 -2.40062,0.67178 -2.25581,0.0745 -2.32405,0.059 -2.62216,-0.59531 -0.25929,-0.56909 -0.48159,-0.67178 -1.45424,-0.67178 -1.32747,0 -1.3115,-0.0495 -0.61899,1.92079 0.29105,0.82807 0.52917,1.80621 0.52917,2.17364 0,0.60655 0.10064,0.66807 1.09295,0.66807 1.09295,0 1.09295,0 0.94681,-0.90061 -0.17273,-1.06437 0.1237,-1.20674 2.5243,-1.21244 l 1.52136,-0.004 v 1.03894 c 0,0.76697 0.1212,1.0706 0.46302,1.15993 0.94701,0.24748 1.35691,0.16998 1.48419,-0.28064 z m -3.051,-4.67873 c 0.43306,-0.73399 0.47061,-0.96519 0.19403,-1.19473 -0.25116,-0.20844 -0.43331,-0.17573 -0.68057,0.12219 -0.30282,0.36487 -0.3877,0.36149 -0.82334,-0.0327 -0.78809,-0.71322 -0.9198,0.19188 -0.18995,1.30529 0.69293,1.05707 0.76371,1.04763 1.49983,-0.19999 z m -3.65871,-1.98007 c 0,-1.03082 -0.007,-1.03795 -1.33594,-1.32292 -1.86735,-0.40047 -1.83906,-0.4137 -1.83906,0.86002 0,1.44883 0.0594,1.49931 1.76389,1.49931 h 1.41111 z m 8.85334,-0.44305 c 0.10021,-0.66818 0.14349,-1.24979 0.0962,-1.29246 -0.0473,-0.0427 -0.83013,0.0442 -1.73964,0.19304 -1.63839,0.26813 -1.65364,0.27865 -1.65364,1.14077 0,0.96414 0.22699,1.09254 2.02048,1.14283 1.09443,0.0307 1.09443,0.0307 1.27661,-1.18418 z m -5.36845,-0.0168 c 0.60039,-0.54334 0.61511,-1.09521 0.046,-1.72409 -0.57664,-0.63719 -0.78951,-0.61102 -1.29407,0.15903 -0.38693,0.59052 -0.38494,0.69829 0.0243,1.32293 0.52533,0.80176 0.59104,0.81476 1.22377,0.24213 z m -3.01156,-2.80346 c 0.29288,-0.68928 0.25245,-0.76367 -0.76363,-1.4051 -1.62003,-1.02267 -1.78846,-1.04396 -2.08516,-0.26357 -0.70131,1.84457 -0.68529,1.88914 0.83524,2.32389 1.52361,0.43565 1.55427,0.42566 2.01355,-0.65522 z m 8.39488,0.16023 c 0.23018,-0.0883 0.25668,-0.45362 0.0955,-1.31637 -0.32546,-1.74211 -0.40786,-1.7887 -1.77669,-1.00455 -1.76771,1.01266 -1.95495,1.23601 -1.74324,2.07955 0.17956,0.71541 0.20982,0.72547 1.64438,0.54623 0.8038,-0.10043 1.60483,-0.23761 1.78005,-0.30486 z m -6.93702,-2.63417 c 0.32991,-0.62965 0.2832,-0.83396 -0.54886,-2.40093 -0.90946,-1.71271 -0.90946,-1.71271 -1.47662,-1.17969 -0.31195,0.29317 -0.76759,0.8725 -1.01254,1.2874 -0.44538,0.75437 -0.44538,0.75437 0.92604,1.84755 1.64596,1.31204 1.65684,1.31433 2.11198,0.44567 z m 5.41261,-1.37075 0.59692,-0.4593 -0.64995,-0.95649 c -1.04556,-1.53868 -1.33456,-1.48352 -2.42277,0.46237 -0.8374,1.49741 -0.92649,1.8161 -0.66692,2.38578 l 0.29958,0.6575 1.1231,-0.81528 c 0.61771,-0.44841 1.39173,-1.02197 1.72004,-1.27458 z m -3.26169,-1.54138 c 0.65075,-1.45634 0.71431,-1.77482 0.39688,-1.98874 -0.34985,-0.23577 -2.51117,-0.17111 -2.765,0.0827 -0.20738,0.20738 1.03688,3.65433 1.31652,3.64715 0.15223,-0.004 0.62545,-0.78743 1.0516,-1.74114 z"
       style="display:inline;fill:#8b4513;stroke-width:0.264583;fill-opacity:1"
       id="path2778" /></g></svg>
