<svg width="138" height="32" viewBox="0 0 138 32" fill="none" xmlns="http://www.w3.org/2000/svg">
<g filter="url(#filter0_d_91_960)">
<rect y="6.10352e-05" width="138" height="30" rx="5" fill="#8B4513" shape-rendering="crispEdges"/>
<rect x="0.5" y="0.500061" width="137" height="29" rx="4.5" stroke="#222222" shape-rendering="crispEdges"/>
<g clip-path="url(#clip0_91_960)">
<path d="M35.5287 18.8047L33.3333 21.0001V7.66673C33.3333 7.29806 33.0353 7.00006 32.6667 7.00006C32.298 7.00006 32 7.29806 32 7.66673V21.0001L29.8047 18.8047C29.544 18.5441 29.1227 18.5441 28.862 18.8047C28.6013 19.0654 28.6013 19.4867 28.862 19.7474L31.724 22.6094C31.984 22.8694 32.3253 22.9994 32.6667 22.9994C33.008 22.9994 33.3493 22.8694 33.6093 22.6094L36.4713 19.7474C36.732 19.4867 36.732 19.0654 36.4713 18.8047C36.2107 18.5441 35.7893 18.5441 35.5287 18.8047ZM43.138 11.1954C43.3987 10.9347 43.3987 10.5134 43.138 10.2527L40.276 7.39073C40.016 7.13073 39.6747 7.00006 39.3333 7.00006C38.992 7.00006 38.6507 7.13006 38.3907 7.39006L35.5287 10.2521C35.268 10.5127 35.268 10.9341 35.5287 11.1947C35.7893 11.4554 36.2107 11.4554 36.4713 11.1947L38.6667 8.99939V22.3334C38.6667 22.7021 38.9647 23.0001 39.3333 23.0001C39.702 23.0001 40 22.7021 40 22.3334V9.00006L42.1953 11.1954C42.456 11.4561 42.8773 11.4561 43.138 11.1954Z" fill="white"/>
</g>
<path d="M66.04 15.2721C66.04 16.1307 65.904 16.9201 65.632 17.6401C65.36 18.3547 64.976 18.9707 64.48 19.4881C63.984 20.0054 63.3867 20.4081 62.688 20.6961C61.9947 20.9787 61.2267 21.1201 60.384 21.1201C59.5413 21.1201 58.7733 20.9787 58.08 20.6961C57.3867 20.4081 56.792 20.0054 56.296 19.4881C55.8 18.9707 55.416 18.3547 55.144 17.6401C54.872 16.9201 54.736 16.1307 54.736 15.2721C54.736 14.4134 54.872 13.6267 55.144 12.9121C55.416 12.1921 55.8 11.5734 56.296 11.0561C56.792 10.5334 57.3867 10.1281 58.08 9.84006C58.7733 9.55206 59.5413 9.40806 60.384 9.40806C61.2267 9.40806 61.9947 9.55206 62.688 9.84006C63.3867 10.1281 63.984 10.5334 64.48 11.0561C64.976 11.5734 65.36 12.1921 65.632 12.9121C65.904 13.6267 66.04 14.4134 66.04 15.2721ZM64.448 15.2721C64.448 14.5681 64.352 13.9361 64.16 13.3761C63.968 12.8161 63.696 12.3441 63.344 11.9601C62.992 11.5707 62.5653 11.2721 62.064 11.0641C61.5627 10.8561 61.0027 10.7521 60.384 10.7521C59.7707 10.7521 59.2133 10.8561 58.712 11.0641C58.2107 11.2721 57.7813 11.5707 57.424 11.9601C57.072 12.3441 56.8 12.8161 56.608 13.3761C56.416 13.9361 56.32 14.5681 56.32 15.2721C56.32 15.9761 56.416 16.6081 56.608 17.1681C56.8 17.7227 57.072 18.1947 57.424 18.5841C57.7813 18.9681 58.2107 19.2641 58.712 19.4721C59.2133 19.6747 59.7707 19.7761 60.384 19.7761C61.0027 19.7761 61.5627 19.6747 62.064 19.4721C62.5653 19.2641 62.992 18.9681 63.344 18.5841C63.696 18.1947 63.968 17.7227 64.16 17.1681C64.352 16.6081 64.448 15.9761 64.448 15.2721ZM67.9336 21.0001V12.8961H68.7496C68.9043 12.8961 69.011 12.9254 69.0696 12.9841C69.1283 13.0427 69.1683 13.1441 69.1896 13.2881L69.2856 14.5521C69.563 13.9867 69.9043 13.5467 70.3096 13.2321C70.7203 12.9121 71.2003 12.7521 71.7496 12.7521C71.9736 12.7521 72.1763 12.7787 72.3576 12.8321C72.539 12.8801 72.707 12.9494 72.8616 13.0401L72.6776 14.1041C72.6403 14.2374 72.5576 14.3041 72.4296 14.3041C72.355 14.3041 72.2403 14.2801 72.0856 14.2321C71.931 14.1787 71.715 14.1521 71.4376 14.1521C70.9416 14.1521 70.5256 14.2961 70.1896 14.5841C69.859 14.8721 69.5816 15.2907 69.3576 15.8401V21.0001H67.9336ZM80.0908 21.0001C79.8881 21.0001 79.7601 20.9014 79.7068 20.7041L79.5788 19.7201C79.2321 20.1414 78.8348 20.4801 78.3868 20.7361C77.9441 20.9867 77.4348 21.1121 76.8588 21.1121C76.3948 21.1121 75.9734 21.0241 75.5948 20.8481C75.2161 20.6667 74.8934 20.4027 74.6268 20.0561C74.3601 19.7094 74.1548 19.2774 74.0108 18.7601C73.8668 18.2427 73.7948 17.6481 73.7948 16.9761C73.7948 16.3787 73.8748 15.8241 74.0348 15.3121C74.1948 14.7947 74.4241 14.3467 74.7228 13.9681C75.0268 13.5894 75.3948 13.2934 75.8268 13.0801C76.2588 12.8614 76.7494 12.7521 77.2988 12.7521C77.7948 12.7521 78.2188 12.8374 78.5708 13.0081C78.9228 13.1734 79.2374 13.4081 79.5148 13.7121V9.21606H80.9388V21.0001H80.0908ZM77.3307 19.9601C77.7948 19.9601 78.2001 19.8534 78.5468 19.6401C78.8988 19.4267 79.2214 19.1254 79.5148 18.7361V14.8161C79.2534 14.4641 78.9654 14.2187 78.6508 14.0801C78.3414 13.9361 77.9974 13.8641 77.6188 13.8641C76.8614 13.8641 76.2801 14.1334 75.8748 14.6721C75.4694 15.2107 75.2668 15.9787 75.2668 16.9761C75.2668 17.5041 75.3121 17.9574 75.4028 18.3361C75.4934 18.7094 75.6268 19.0187 75.8028 19.2641C75.9788 19.5041 76.1948 19.6801 76.4508 19.7921C76.7068 19.9041 77.0001 19.9601 77.3307 19.9601ZM86.5323 12.7681C87.0176 12.7681 87.4656 12.8507 87.8763 13.0161C88.2869 13.1761 88.6416 13.4107 88.9403 13.7201C89.2389 14.0241 89.4709 14.4027 89.6363 14.8561C89.8069 15.3041 89.8923 15.8161 89.8923 16.3921C89.8923 16.6161 89.8683 16.7654 89.8203 16.8401C89.7723 16.9147 89.6816 16.9521 89.5483 16.9521H84.1562C84.1669 17.4641 84.2363 17.9094 84.3643 18.2881C84.4923 18.6667 84.6683 18.9841 84.8923 19.2401C85.1163 19.4907 85.3829 19.6801 85.6923 19.8081C86.0016 19.9307 86.3483 19.9921 86.7323 19.9921C87.0896 19.9921 87.3963 19.9521 87.6523 19.8721C87.9136 19.7867 88.1376 19.6961 88.3243 19.6001C88.5109 19.5041 88.6656 19.4161 88.7883 19.3361C88.9163 19.2507 89.0256 19.2081 89.1163 19.2081C89.2336 19.2081 89.3243 19.2534 89.3883 19.3441L89.7883 19.8641C89.6123 20.0774 89.4016 20.2641 89.1563 20.4241C88.9109 20.5787 88.6469 20.7067 88.3643 20.8081C88.0869 20.9094 87.7989 20.9841 87.5003 21.0321C87.2016 21.0854 86.9056 21.1121 86.6123 21.1121C86.0523 21.1121 85.5349 21.0187 85.0603 20.8321C84.5909 20.6401 84.1829 20.3627 83.8363 20.0001C83.4949 19.6321 83.2283 19.1787 83.0363 18.6401C82.8443 18.1014 82.7483 17.4827 82.7483 16.7841C82.7483 16.2187 82.8336 15.6907 83.0043 15.2001C83.1803 14.7094 83.4309 14.2854 83.7563 13.9281C84.0816 13.5654 84.4789 13.2827 84.9483 13.0801C85.4176 12.8721 85.9456 12.7681 86.5323 12.7681ZM86.5642 13.8161C85.8763 13.8161 85.3349 14.0161 84.9403 14.4161C84.5456 14.8107 84.3003 15.3601 84.2043 16.0641H88.6123C88.6123 15.7334 88.5669 15.4321 88.4763 15.1601C88.3856 14.8827 88.2523 14.6454 88.0763 14.4481C87.9003 14.2454 87.6843 14.0907 87.4283 13.9841C87.1776 13.8721 86.8896 13.8161 86.5642 13.8161ZM91.7149 21.0001V12.8961H92.5629C92.7655 12.8961 92.8935 12.9947 92.9469 13.1921L93.0589 14.0721C93.4109 13.6827 93.8029 13.3681 94.2349 13.1281C94.6722 12.8881 95.1762 12.7681 95.7469 12.7681C96.1895 12.7681 96.5789 12.8427 96.9149 12.9921C97.2562 13.1361 97.5389 13.3441 97.7629 13.6161C97.9922 13.8827 98.1655 14.2054 98.2829 14.5841C98.4002 14.9627 98.4589 15.3814 98.4589 15.8401V21.0001H97.0349V15.8401C97.0349 15.2267 96.8935 14.7521 96.6109 14.4161C96.3335 14.0747 95.9069 13.9041 95.3309 13.9041C94.9095 13.9041 94.5149 14.0054 94.1469 14.2081C93.7842 14.4107 93.4482 14.6854 93.1389 15.0321V21.0001H91.7149ZM106.558 21.0001H105.926C105.787 21.0001 105.675 20.9787 105.59 20.9361C105.504 20.8934 105.448 20.8027 105.422 20.6641L105.262 19.9121C105.048 20.1041 104.84 20.2774 104.638 20.4321C104.435 20.5814 104.222 20.7094 103.998 20.8161C103.774 20.9174 103.534 20.9947 103.278 21.0481C103.027 21.1014 102.747 21.1281 102.438 21.1281C102.123 21.1281 101.827 21.0854 101.549 21.0001C101.278 20.9094 101.04 20.7761 100.838 20.6001C100.635 20.4241 100.472 20.2027 100.35 19.9361C100.232 19.6641 100.174 19.3441 100.174 18.9761C100.174 18.6561 100.262 18.3494 100.438 18.0561C100.614 17.7574 100.896 17.4934 101.286 17.2641C101.68 17.0347 102.195 16.8481 102.83 16.7041C103.464 16.5547 104.24 16.4694 105.158 16.4481V15.8161C105.158 15.1867 105.022 14.7121 104.75 14.3921C104.483 14.0667 104.086 13.9041 103.558 13.9041C103.211 13.9041 102.918 13.9494 102.678 14.0401C102.443 14.1254 102.238 14.2241 102.062 14.3361C101.891 14.4427 101.742 14.5414 101.614 14.6321C101.491 14.7174 101.368 14.7601 101.246 14.7601C101.15 14.7601 101.064 14.7361 100.99 14.6881C100.92 14.6347 100.864 14.5707 100.822 14.4961L100.566 14.0401C101.014 13.6081 101.496 13.2854 102.014 13.0721C102.531 12.8587 103.104 12.7521 103.734 12.7521C104.187 12.7521 104.59 12.8267 104.942 12.9761C105.294 13.1254 105.59 13.3334 105.83 13.6001C106.07 13.8667 106.251 14.1894 106.374 14.5681C106.496 14.9467 106.558 15.3627 106.558 15.8161V21.0001ZM102.862 20.1281C103.112 20.1281 103.342 20.1041 103.549 20.0561C103.758 20.0027 103.952 19.9307 104.134 19.8401C104.32 19.7441 104.496 19.6294 104.662 19.4961C104.832 19.3627 104.998 19.2107 105.158 19.0401V17.3521C104.502 17.3734 103.944 17.4267 103.486 17.5121C103.027 17.5921 102.654 17.6987 102.366 17.8321C102.078 17.9654 101.867 18.1227 101.734 18.3041C101.606 18.4854 101.542 18.6881 101.542 18.9121C101.542 19.1254 101.576 19.3094 101.646 19.4641C101.715 19.6187 101.808 19.7467 101.926 19.8481C102.043 19.9441 102.182 20.0161 102.342 20.0641C102.502 20.1067 102.675 20.1281 102.862 20.1281ZM108.715 21.0001V12.8961H109.531C109.686 12.8961 109.792 12.9254 109.851 12.9841C109.91 13.0427 109.95 13.1441 109.971 13.2881L110.067 14.5521C110.344 13.9867 110.686 13.5467 111.091 13.2321C111.502 12.9121 111.982 12.7521 112.531 12.7521C112.755 12.7521 112.958 12.7787 113.139 12.8321C113.32 12.8801 113.488 12.9494 113.643 13.0401L113.459 14.1041C113.422 14.2374 113.339 14.3041 113.211 14.3041C113.136 14.3041 113.022 14.2801 112.867 14.2321C112.712 14.1787 112.496 14.1521 112.219 14.1521C111.723 14.1521 111.307 14.2961 110.971 14.5841C110.64 14.8721 110.363 15.2907 110.139 15.8401V21.0001H108.715Z" fill="white"/>
</g>
<defs>
<filter id="filter0_d_91_960" x="0" y="6.10352e-05" width="138" height="32" filterUnits="userSpaceOnUse" color-interpolation-filters="sRGB">
<feFlood flood-opacity="0" result="BackgroundImageFix"/>
<feColorMatrix in="SourceAlpha" type="matrix" values="0 0 0 0 0 0 0 0 0 0 0 0 0 0 0 0 0 0 127 0" result="hardAlpha"/>
<feOffset dy="2"/>
<feComposite in2="hardAlpha" operator="out"/>
<feColorMatrix type="matrix" values="0 0 0 0 0.133333 0 0 0 0 0.133333 0 0 0 0 0.133333 0 0 0 1 0"/>
<feBlend mode="normal" in2="BackgroundImageFix" result="effect1_dropShadow_91_960"/>
<feBlend mode="normal" in="SourceGraphic" in2="effect1_dropShadow_91_960" result="shape"/>
</filter>
<clipPath id="clip0_91_960">
<rect width="16" height="16" fill="white" transform="translate(28 7.00006)"/>
</clipPath>
</defs>
</svg>
