<svg width="180" height="180" viewBox="0 0 180 180" fill="none" xmlns="http://www.w3.org/2000/svg">
<path d="M140.625 180C151.068 180 161.083 175.852 168.467 168.467C175.852 161.083 180 151.068 180 140.625C180 130.182 175.852 120.167 168.467 112.783C161.083 105.398 151.068 101.25 140.625 101.25C130.182 101.25 120.167 105.398 112.783 112.783C105.398 120.167 101.25 130.182 101.25 140.625C101.25 151.068 105.398 161.083 112.783 168.467C120.167 175.852 130.182 180 140.625 180ZM146.25 123.75V135H157.5C158.992 135 160.423 135.593 161.477 136.648C162.532 137.702 163.125 139.133 163.125 140.625C163.125 142.117 162.532 143.548 161.477 144.602C160.423 145.657 158.992 146.25 157.5 146.25H146.25V157.5C146.25 158.992 145.657 160.423 144.602 161.477C143.548 162.532 142.117 163.125 140.625 163.125C139.133 163.125 137.702 162.532 136.648 161.477C135.593 160.423 135 158.992 135 157.5V146.25H123.75C122.258 146.25 120.827 145.657 119.773 144.602C118.718 143.548 118.125 142.117 118.125 140.625C118.125 139.133 118.718 137.702 119.773 136.648C120.827 135.593 122.258 135 123.75 135H135V123.75C135 122.258 135.593 120.827 136.648 119.773C137.702 118.718 139.133 118.125 140.625 118.125C142.117 118.125 143.548 118.718 144.602 119.773C145.657 120.827 146.25 122.258 146.25 123.75ZM123.75 56.25C123.75 65.2011 120.194 73.7855 113.865 80.1149C107.536 86.4442 98.9511 90 90 90C81.0489 90 72.4645 86.4442 66.1351 80.1149C59.8058 73.7855 56.25 65.2011 56.25 56.25C56.25 47.2989 59.8058 38.7145 66.1351 32.3851C72.4645 26.0558 81.0489 22.5 90 22.5C98.9511 22.5 107.536 26.0558 113.865 32.3851C120.194 38.7145 123.75 47.2989 123.75 56.25Z" fill="#13598B"/>
<path d="M22.5 146.25C22.5 157.5 33.75 157.5 33.75 157.5H92.88C90.9675 152.08 89.9936 146.373 90 140.625C89.9926 133.39 91.5396 126.237 94.5364 119.652C97.5332 113.066 101.91 107.201 107.37 102.454C102.116 101.678 96.345 101.25 90 101.25C33.75 101.25 22.5 135 22.5 146.25Z" fill="#13598B"/>
</svg>
