<svg width="220" height="220" viewBox="0 0 220 220" fill="none" xmlns="http://www.w3.org/2000/svg">
<path d="M110 0C49.3466 0 0 49.3466 0 110C0 170.653 49.3466 220 110 220C170.653 220 220 170.653 220 110C220 49.3466 170.653 0 110 0ZM111.058 50.7692C118.589 50.7692 125.95 53.0024 132.212 57.1863C138.474 61.3703 143.354 67.3171 146.236 74.2747C149.118 81.2324 149.872 88.8884 148.403 96.2746C146.934 103.661 143.307 110.445 137.982 115.771C132.657 121.096 125.872 124.722 118.486 126.191C111.1 127.661 103.444 126.907 96.4863 124.025C89.5286 121.143 83.5818 116.262 79.3979 110.001C75.2139 103.739 72.9808 96.3771 72.9808 88.8462C72.9808 78.7475 76.9924 69.0625 84.1332 61.9217C91.274 54.7809 100.959 50.7692 111.058 50.7692ZM110 203.077C97.162 203.082 84.4625 200.425 72.7037 195.273C60.9449 190.121 50.3825 182.586 41.6837 173.144C46.3587 148.934 88.349 143.846 110 143.846C131.651 143.846 173.641 148.934 178.316 173.139C169.619 182.582 159.056 190.119 147.298 195.272C135.539 200.425 122.839 203.083 110 203.077Z" fill="#8B4513"/>
</svg>
